<?xml version="1.0" encoding="UTF-8" standalone="no"?>
<!-- Created with Inkscape (http://www.inkscape.org/) -->

<svg
   xmlns:dc="http://purl.org/dc/elements/1.1/"
   xmlns:cc="http://creativecommons.org/ns#"
   xmlns:rdf="http://www.w3.org/1999/02/22-rdf-syntax-ns#"
   xmlns:svg="http://www.w3.org/2000/svg"
   xmlns="http://www.w3.org/2000/svg"
   xmlns:sodipodi="http://sodipodi.sourceforge.net/DTD/sodipodi-0.dtd"
   xmlns:inkscape="http://www.inkscape.org/namespaces/inkscape"
   width="1000mm"
   height="160mm"
   viewBox="0 0 1000 160"
   version="1.1"
   id="svg8"
   inkscape:version="0.92.4 5da689c313, 2019-01-14"
   sodipodi:docname="logo.svg"
   style="shape-rendering:crispEdges">
  <defs
     id="defs2">
    <filter
       inkscape:label="Sharpen"
       inkscape:menu="Image Effects"
       inkscape:menu-tooltip="Sharpen edges and boundaries within the object, force=0.15"
       style="color-interpolation-filters:sRGB"
       id="filter4953">
      <feConvolveMatrix
         order="3 3"
         kernelMatrix="0 -0.15 0 -0.15 1.6 -0.15 0 -0.15 0"
         divisor="1"
         in="SourceGraphic"
         targetX="1"
         targetY="1"
         id="feConvolveMatrix4951" />
    </filter>
  </defs>
  <sodipodi:namedview
     id="base"
     pagecolor="#ffffff"
     bordercolor="#666666"
     borderopacity="1.0"
     inkscape:pageopacity="0.0"
     inkscape:pageshadow="2"
     inkscape:zoom="0.5"
     inkscape:cx="2266.459"
     inkscape:cy="121.60689"
     inkscape:document-units="mm"
     inkscape:current-layer="g1075"
     showgrid="false"
     showguides="false"
     inkscape:window-width="1920"
     inkscape:window-height="1011"
     inkscape:window-x="0"
     inkscape:window-y="32"
     inkscape:window-maximized="1">
    <inkscape:grid
       type="xygrid"
       id="grid4727" />
  </sodipodi:namedview>
  <metadata
     id="metadata5">
    <rdf:RDF>
      <cc:Work
         rdf:about="">
        <dc:format>image/svg+xml</dc:format>
        <dc:type
           rdf:resource="http://purl.org/dc/dcmitype/StillImage" />
        <dc:title />
      </cc:Work>
    </rdf:RDF>
  </metadata>
  <g
     inkscape:label="LOGO"
     inkscape:groupmode="layer"
     id="layer1"
     transform="translate(0,-137)">
    <g
       id="g1075">
      <g
         id="g833">
        <path
           style="fill:#5e6e65;fill-opacity:1;stroke:#483737;stroke-width:0.36351249;stroke-opacity:1"
           d="m 38.636326,194.04065 v -36.73051 l 41.713051,0.12846 c 38.845353,0.11967 41.888003,0.17379 44.257643,0.7872 7.60968,1.96986 11.69524,5.73757 13.1127,12.09252 0.47606,2.13433 0.55757,4.31196 0.44226,11.81416 -0.13094,8.51658 -0.20239,9.35198 -0.96574,11.28381 -2.35769,5.96677 -6.87718,9.17787 -14.70572,10.44844 -1.37785,0.22364 -14.57213,0.36554 -34.143869,0.36722 l -31.898205,0.003 v 13.26821 13.26819 h -8.906058 -8.906062 z m 79.063964,-6.88172 c 2.42392,-0.56162 2.72634,-1.25529 2.72634,-6.25315 -0.11431,-2.21904 0.53534,-5.2067 -1.86413,-6.07731 -0.80598,-0.28097 -10.31628,-0.40176 -31.633247,-0.40176 H 56.448446 v 6.30089 c 0,3.46549 0.10906,6.40993 0.242342,6.54322 0.378641,0.37866 59.359182,0.27048 61.009502,-0.11184 z m 41.67902,42.8512 c -7.08732,-1.90339 -11.42236,-6.07441 -12.73424,-12.25244 -0.53079,-2.49969 -0.56949,-44.18969 -0.0437,-47.00736 0.8837,-4.73498 4.13224,-8.89798 8.46683,-10.85022 5.45233,-2.45566 2.61657,-2.32179 52.14696,-2.46156 l 44.80291,-0.1264 v 8.55289 8.55291 l -43.10774,0.0952 -43.10775,0.0953 c -0.83055,0.23767 -1.5255,0.71943 -1.75453,2.03985 v 17.26463 c 0,19.37343 -0.0387,19.0618 2.4543,19.75415 0.9078,0.25212 15.38888,0.37909 43.38719,0.38043 l 42.02461,0.002 0.2544,3.69384 c 0.13992,2.03161 0.14025,5.79395 7.3e-4,8.36078 l -0.25371,4.6668 -44.93342,-0.0221 c -43.54036,-0.0215 -45.01617,-0.0442 -47.60292,-0.73897 z m 102.09016,-35.94328 v -36.72521 l 43.34886,2.9e-4 c 43.50642,3.1e-4 48.77333,0.12957 53.70898,1.31751 8.32103,2.00287 13.83008,7.24175 15.84964,15.07231 0.49645,1.92491 0.63109,4.98503 0.77326,17.57346 0.18471,16.35677 -0.0896,21.33444 -1.39625,25.34321 -2.21875,6.80662 -7.2024,10.95647 -15.95368,13.28448 -2.17017,0.57732 -6.19376,0.63798 -49.34681,0.74388 l -46.984,0.11527 z m 89.01357,19.60146 c 2.94314,-0.47756 4.97098,-1.51143 5.87609,-2.99589 0.67641,-1.10934 0.71148,-1.91986 0.71277,-16.47139 10e-4,-15.2674 -7.3e-4,-15.30766 -0.81707,-16.53982 -0.9759,-1.66269 -1.68134,-2.35771 -4.4525,-3.05273 l -36.26037,-0.0994 -36.26037,-0.0994 v 19.81991 19.81992 l 34.4428,-0.002 c 21.96174,-10e-4 35.28202,-0.13892 36.75865,-0.37852 z"
           id="path1028"
           inkscape:connector-curvature="0"
           sodipodi:nodetypes="ccscccccscccccccccscsccccsccsccccccsccccccsccccscscccscccccccccccccc" />
        <path
           style="fill:#5e6e65;fill-opacity:1;stroke:#483737;stroke-width:0.36351246;stroke-opacity:1"
           d="m 534.32439,265.26662 v -10.17835 h 1.99932 c 1.79196,0 1.99931,0.0796 1.99931,0.76731 0,0.74903 0.0164,0.74688 0.69537,-0.0908 0.57752,-0.71276 1.01795,-0.85347 2.59911,-0.83047 3.07448,0.0448 3.24875,0.45271 3.24875,7.60608 0,7.05758 -0.20618,7.57316 -3.02853,7.57316 -1.06509,0 -1.93472,-0.22351 -2.3572,-0.60586 -0.36821,-0.33322 -0.77926,-0.60585 -0.91346,-0.60585 -0.13423,0 -0.24404,1.47222 -0.24404,3.27161 v 3.27161 h -1.99931 -1.99932 z m 6.17971,-2.75049 v -4.20454 l -0.99965,0.115 -0.99967,0.11499 -0.10488,3.60925 c -0.0577,1.98509 -0.0219,3.82537 0.0795,4.08951 0.10135,0.26415 0.59842,0.48028 1.1045,0.48028 h 0.9202 z m 174.12248,2.75049 v -10.17835 h 1.99931 c 1.79198,0 1.99933,0.0796 1.99933,0.76731 0,0.74903 0.0164,0.74688 0.69536,-0.0908 0.57751,-0.71276 1.01794,-0.85347 2.59911,-0.83047 3.08657,0.0449 3.24876,0.43287 3.24876,7.77173 0,5.63446 -0.054,6.13195 -0.73172,6.74531 -0.95375,0.86314 -3.72547,0.89667 -4.65402,0.0563 -0.3682,-0.33322 -0.77927,-0.60582 -0.91348,-0.60582 -0.13423,0 -0.24401,1.47221 -0.24401,3.2716 v 3.27161 h -1.99933 -1.99931 z m 6.17971,-2.75049 v -4.20454 l -0.99967,0.115 -0.99964,0.11499 -0.10488,3.60925 c -0.0577,1.98509 -0.0219,3.82537 0.0794,4.08951 0.10136,0.26415 0.59843,0.48028 1.1045,0.48028 h 0.92021 z m 115.23349,2.75049 v -10.17835 h 1.99928 c 1.82861,0 2.00005,0.0698 2.00742,0.81791 0.008,0.81737 0.008,0.81731 0.70667,-0.0908 0.59347,-0.77204 0.98334,-0.90463 2.59105,-0.8811 3.0736,0.0451 3.2374,0.43827 3.2374,7.77174 0,5.63446 -0.054,6.13195 -0.73171,6.74532 -0.95371,0.86312 -3.72545,0.89666 -4.65402,0.0563 -0.3682,-0.33323 -0.77925,-0.60586 -0.91347,-0.60586 -0.13423,0 -0.24403,1.47223 -0.24403,3.27161 v 3.27162 h -1.99931 -1.99928 z m 6.17968,-2.72634 c 0,-4.1669 -0.004,-4.18039 -0.8699,-4.18039 -1.13809,0 -1.31119,0.55189 -1.31119,4.18039 0,3.6285 0.1731,4.18039 1.31119,4.18039 0.86713,0 0.8699,-0.0137 0.8699,-4.18039 z m 64.70519,11.10684 c 0,-0.71262 0.24937,-1.21813 0.72708,-1.47376 0.42508,-0.22752 0.72693,-0.76113 0.72693,-1.28508 0,-0.71338 -0.18521,-0.89599 -0.9087,-0.89599 -0.86845,0 -0.90885,-0.097 -0.90885,-2.18108 v -2.18107 h 2.21626 2.2161 l -0.12639,3.44568 c -0.11404,3.11471 -0.21324,3.52954 -1.03469,4.31866 -0.49983,0.48014 -1.35866,0.97744 -1.9085,1.10514 -0.919,0.21346 -0.99965,0.14472 -0.99965,-0.8525 z m -344.68163,-3.61814 c -2.85667,-0.59418 -3.29392,-1.73266 -3.13776,-8.16985 0.1084,-4.46661 0.19346,-5.00878 0.89601,-5.71042 1.65654,-1.65432 7.29908,-1.73929 9.1627,-0.13797 0.94719,0.8139 0.96873,0.93021 1.08301,5.86104 0.12475,5.38238 -0.12448,6.66481 -1.46357,7.53228 -1.01304,0.65625 -4.69736,1.00828 -6.54039,0.62492 z m 3.52519,-7.4887 v -4.36215 h -1.09054 -1.09053 l -0.10389,3.97527 c -0.0571,2.1864 -0.0171,4.20122 0.0887,4.47738 0.11623,0.30308 0.58973,0.45643 1.1944,0.38686 l 1.00173,-0.11526 z m 9.39841,7.56394 c -1.78376,-0.3489 -2.07424,-1.23025 -2.24186,-6.80249 -0.18878,-6.27448 0.12461,-7.61721 1.91585,-8.20838 1.36107,-0.44918 2.96773,-0.18488 3.92318,0.64535 0.60037,0.52171 0.63615,0.34524 0.63615,-3.13868 v -3.69146 h 2.18107 2.18107 v 10.54187 10.54186 h -1.99931 c -1.8276,0 -2.0003,-0.0702 -2.01088,-0.81792 -0.011,-0.74808 -0.0519,-0.7648 -0.48401,-0.19604 -0.49464,0.65107 -2.15265,1.41277 -2.89059,1.32796 -0.2369,-0.0272 -0.78169,-0.11815 -1.21067,-0.20207 z m 4.23332,-7.56394 v -4.18039 h -0.90879 -0.90878 v 4.18039 4.18039 h 0.90878 0.90879 z m 9.54944,7.56651 c -0.44585,-0.0897 -1.14107,-0.58324 -1.54493,-1.09666 -0.67442,-0.8574 -0.73426,-1.46253 -0.73426,-7.42766 v -6.4942 h 2.18108 2.18107 v 5.84035 5.84033 l 0.99966,-0.11499 0.99965,-0.11499 0.10015,-5.72531 0.10015,-5.72534 h 2.17183 2.17183 v 7.45201 7.45202 h -2.18107 c -1.99703,0 -2.18108,-0.0667 -2.18108,-0.7904 v -0.79039 l -0.8179,0.76345 c -0.89569,0.83605 -2.18715,1.18527 -3.44613,0.93183 z m 14.32336,-0.10356 c -2.65721,-0.51386 -2.95509,-1.17348 -3.08745,-6.83575 -0.0664,-2.84144 0.0439,-5.41141 0.25642,-5.9699 0.62917,-1.65409 1.95098,-2.23554 5.14255,-2.2622 3.82109,-0.0319 4.84666,0.65861 5.00588,3.37053 l 0.10994,1.87164 h -1.81128 c -1.57445,0 -1.82646,-0.10212 -1.92741,-0.78077 -0.16483,-1.10783 -1.17138,-1.66951 -1.90328,-1.06209 -0.45683,0.37913 -0.57574,1.24781 -0.57574,4.2057 0,2.95786 0.11899,3.82654 0.57574,4.20567 0.82742,0.68671 1.76045,-0.0123 1.90102,-1.42511 0.11238,-1.12991 0.13959,-1.14477 2.09336,-1.14477 h 1.97947 l -0.22865,2.0902 c -0.27482,2.51237 -0.95687,3.3376 -3.10107,3.75183 -1.83942,0.35535 -2.52643,0.35303 -4.42941,-0.015 z m 13.12258,0.093 c -0.54541,-0.0829 -1.32241,-0.57116 -1.72668,-1.0851 -0.65443,-0.83195 -0.73501,-1.46722 -0.73501,-5.79282 0,-4.07623 -0.0878,-4.85839 -0.54528,-4.85839 -0.4039,0 -0.54526,-0.4241 -0.54526,-1.63581 0,-1.21171 0.14136,-1.6358 0.54526,-1.6358 0.41859,0 0.54528,-0.46449 0.54528,-1.99931 v -1.99934 h 2.18107 2.18107 v 1.99934 1.99931 h 1.2723 c 1.26556,0 1.27229,0.008 1.27229,1.6358 0,1.62996 -0.004,1.63581 -1.28381,1.63581 h -1.28387 l 0.10246,4.27127 0.10235,4.27127 0.99966,0.115 c 0.89541,0.103 0.99966,0.2594 0.99966,1.49948 0,1.25981 -0.10235,1.40493 -1.13602,1.61166 -0.62472,0.12503 -1.31995,0.20269 -1.54488,0.17275 -0.22491,-0.0299 -0.8552,-0.12228 -1.40061,-0.20515 z m 33.52604,-0.20416 c -2.44059,-0.66396 -2.90698,-1.84343 -2.90698,-7.35175 0,-5.63113 0.44545,-6.69454 3.08874,-7.37385 2.2944,-0.58967 5.2948,-0.26819 6.52445,0.69905 0.77018,0.60581 0.92755,1.0335 0.92755,2.52078 v 1.79119 h -1.79343 c -1.68477,0 -1.80036,-0.0603 -1.90845,-0.99657 -0.12804,-1.10991 -1.10006,-1.51192 -1.95002,-0.8065 -0.7946,0.65944 -0.75425,7.70582 0.048,8.37157 0.82744,0.68671 1.76046,-0.0123 1.90104,-1.42511 0.11279,-1.13348 0.13381,-1.14477 2.14021,-1.14477 h 2.0264 l -0.23142,1.9684 c -0.12723,1.0826 -0.32232,2.20552 -0.43352,2.49536 -0.49751,1.29644 -4.67974,2.00106 -7.43248,1.2522 z m 13.08645,-0.0199 c -2.43019,-0.63158 -2.90684,-1.82051 -2.90753,-7.25268 0,-6.19028 0.52081,-7.17113 4.08893,-7.68876 2.65343,-0.38496 4.99507,0.0984 6.17031,1.27364 l 1.00907,1.00907 v 5.27862 c 0,4.97003 -0.0483,5.33494 -0.82848,6.24181 -1.2711,1.47775 -4.40435,1.95122 -7.5323,1.1383 z m 3.81687,-7.33186 v -4.36215 h -1.09053 -1.09054 l -0.10389,3.97525 c -0.0571,2.18642 -0.0171,4.20124 0.0887,4.47737 0.11623,0.30311 0.58973,0.45646 1.19441,0.38688 l 1.00172,-0.11528 v -4.36214 z m 24.53711,7.58224 c -3.4162,-0.61668 -3.81689,-1.41245 -3.81689,-7.57999 0,-5.37079 0.30383,-6.38849 2.1336,-7.14637 1.24901,-0.51737 4.59952,-0.63491 6.1109,-0.21437 1.59155,0.44283 2.1156,1.23649 2.1156,3.20406 v 1.79158 h -1.79342 c -1.68478,0 -1.80037,-0.0603 -1.90845,-0.99654 -0.0741,-0.64212 -0.36504,-1.04405 -0.81801,-1.13007 -1.23009,-0.23361 -1.65983,0.92871 -1.65983,4.48946 0,3.56071 0.42971,4.72299 1.65983,4.48952 0.51928,-0.0985 0.73248,-0.48891 0.81584,-1.49357 l 0.11279,-1.36017 h 1.9774 1.97736 v 1.61215 c 0,1.97316 -0.47893,3.31899 -1.34576,3.78169 -0.80037,0.42719 -4.31882,0.77684 -5.56096,0.55262 z m 13.08644,-0.015 c -1.70618,-0.28004 -2.81057,-0.88965 -3.3139,-1.82931 -0.55512,-1.03628 -0.72305,-9.3138 -0.22509,-11.09324 0.42797,-1.52924 2.15037,-2.24693 5.35655,-2.23195 4.72366,0.0221 5.80965,1.18214 5.81415,6.21082 l 0.004,2.25878 -3.54424,0.104 c -3.40931,0.10003 -3.54885,0.13656 -3.66526,0.95891 -0.24563,1.73526 0.23087,2.5985 1.43427,2.5985 0.81191,0 1.16964,-0.19887 1.30777,-0.72703 0.16345,-0.62503 0.49584,-0.72703 2.36924,-0.72703 h 2.17914 l -0.24772,1.36317 c -0.1363,0.74974 -0.54582,1.66819 -0.91013,2.04098 -0.98069,1.00354 -3.98533,1.4954 -6.55683,1.07335 z m 2.90809,-10.66862 c 0,-1.02141 -0.18018,-1.5346 -0.59467,-1.69365 -0.81202,-0.31159 -1.74289,0.33647 -1.88779,1.31423 -0.19455,1.31296 0.20346,1.84488 1.3805,1.84488 1.04471,0 1.10196,-0.0761 1.10196,-1.46546 z m 23.44699,10.52928 c -1.82668,-0.54462 -1.99975,-1.11117 -1.99975,-6.5463 0,-4.67158 -0.0447,-4.98897 -0.72699,-5.16741 -0.5777,-0.15106 -0.72705,-0.49584 -0.72705,-1.67821 0,-1.24573 0.11842,-1.48808 0.72705,-1.48808 0.63886,0 0.72699,-0.24234 0.72699,-1.99931 v -1.99933 h 2.18108 2.18107 v 1.99933 c 0,1.97912 0.011,1.99931 1.09054,1.99931 1.05014,0 1.09053,0.0605 1.09053,1.6358 0,1.57903 -0.0382,1.63581 -1.10206,1.63581 h -1.10209 l 0.10246,4.27127 0.10235,4.27128 0.99965,0.115 c 0.89511,0.10301 0.99967,0.25956 0.99967,1.49735 0,1.31497 -0.0665,1.39333 -1.36318,1.60767 -1.63177,0.26972 -1.78314,0.26238 -3.1803,-0.15421 z m 33.35504,0.14212 c -1.6823,-0.34661 -1.91163,-1.27953 -1.91163,-7.77643 0,-5.68172 0.0458,-6.08384 0.76533,-6.73498 0.96628,-0.87431 3.66921,-0.88686 4.62544,-0.0215 0.36547,0.3307 0.77421,0.60127 0.90842,0.60127 0.13423,0 0.24402,-1.63579 0.24402,-3.63512 v -3.63514 h 1.99932 1.99935 v 10.54187 10.54186 h -1.99935 c -1.79198,0 -1.99932,-0.0796 -1.99932,-0.76729 v -0.76731 l -0.63616,0.74884 c -0.65427,0.77022 -2.55599,1.20044 -3.99542,0.90388 z m 4.44982,-7.57011 v -3.99864 l -0.99965,-0.115 -0.99966,-0.11499 v 4.22867 4.22868 l 0.99966,-0.115 0.99965,-0.11499 z m 10.72366,7.56735 c -3.39125,-0.5566 -3.81692,-1.40055 -3.81692,-7.56735 0,-5.37162 0.30124,-6.37945 2.1388,-7.1554 1.56747,-0.66192 5.94277,-0.55365 7.36588,0.18227 1.43258,0.74081 1.94601,2.16324 1.94601,5.39156 v 2.49036 h -3.45341 -3.45337 v 1.81755 c 0,1.7894 0.0175,1.81757 1.12455,1.81757 0.81885,0 1.1763,-0.19764 1.31476,-0.72703 0.16341,-0.62504 0.49579,-0.72702 2.3692,-0.72702 h 2.17914 l -0.24774,1.36315 c -0.13629,0.74976 -0.54581,1.66821 -0.91011,2.04098 -0.98069,1.00357 -3.98534,1.49542 -6.55679,1.07336 z m 3.08982,-10.61758 c 0,-1.3427 -0.78841,-2.12066 -1.76816,-1.7447 -0.41659,0.15987 -0.59467,0.67396 -0.59467,1.71669 0,1.46035 0.0221,1.48633 1.1814,1.37458 1.07823,-0.104 1.18143,-0.22158 1.18143,-1.34657 z m 21.62899,10.3821 c -2.43949,-0.63401 -2.90693,-1.81308 -2.90693,-7.33187 0,-5.63249 0.44556,-6.69581 3.08869,-7.37111 2.57214,-0.65717 5.73179,-0.25791 7.1054,0.89783 1.04128,0.87623 1.07363,1.0011 1.07363,4.14275 v 3.23932 h -3.4733 -3.47328 l 0.11073,1.72667 c 0.10554,1.6452 0.16507,1.73195 1.26114,1.83828 0.89747,0.0871 1.20253,-0.0527 1.38767,-0.63615 0.20117,-0.63375 0.53837,-0.74773 2.21215,-0.74773 h 1.97483 v 1.23202 c 0,1.8009 -0.99352,2.80794 -3.11341,3.15586 -2.36872,0.38876 -3.28866,0.36317 -5.24739,-0.14587 z m 3.92865,-10.51261 c -0.10476,-1.4494 -0.1792,-1.54494 -1.20231,-1.54494 -1.02311,0 -1.09744,0.0955 -1.20231,1.54494 l -0.11185,1.54492 h 1.31411 1.3141 z m 17.8821,10.76298 c -3.416,-0.61664 -3.81689,-1.41301 -3.81689,-7.58224 0,-5.37162 0.30124,-6.37945 2.13885,-7.1554 1.62276,-0.68527 5.94996,-0.57564 7.39809,0.18742 1.53108,0.80673 1.73195,1.64037 1.73195,7.18643 0,4.90825 -0.32188,6.12243 -1.80197,6.7968 -0.98827,0.4503 -4.39987,0.79265 -5.65003,0.56699 z m 2.87677,-3.5458 c 0.27518,-0.33158 0.3851,-1.79856 0.31708,-4.23262 -0.10895,-3.90335 -0.49011,-4.76557 -1.87215,-4.23523 -0.5023,0.19274 -0.59467,0.87 -0.59467,4.35942 0,2.27216 0.10906,4.24027 0.24234,4.37355 0.41336,0.41335 1.46565,0.26707 1.9074,-0.26512 z m 44.74336,3.53091 c -1.63446,-0.26827 -2.92813,-0.92784 -3.35416,-1.71013 -0.59529,-1.0931 -0.81711,-8.78667 -0.30767,-10.67133 0.5739,-2.12322 1.89105,-2.78981 5.47943,-2.77305 4.72363,0.0221 5.80966,1.18215 5.81412,6.21082 l 0.004,2.25878 -3.54424,0.104 c -3.40933,0.10004 -3.54887,0.13656 -3.66527,0.95892 -0.24563,1.73525 0.23087,2.59849 1.43428,2.59849 0.81191,0 1.16963,-0.19887 1.30776,-0.72703 0.16315,-0.62389 0.49585,-0.72701 2.34525,-0.72701 h 2.15515 l -0.23954,1.36316 c -0.13177,0.74975 -0.53053,1.66819 -0.88614,2.04098 -0.95586,1.00204 -3.96601,1.49598 -6.54102,1.07335 z m 2.90814,-10.66861 c 0,-1.02141 -0.18023,-1.53461 -0.5947,-1.69367 -0.81202,-0.31159 -1.7429,0.33647 -1.88779,1.31424 -0.19452,1.31296 0.20348,1.84487 1.3805,1.84487 1.0447,0 1.10199,-0.0761 1.10199,-1.46544 z m 23.44695,10.52926 c -1.82668,-0.54463 -1.99975,-1.11118 -1.99975,-6.54631 0,-4.67158 -0.0447,-4.98897 -0.72699,-5.16741 -0.57765,-0.15106 -0.72706,-0.49584 -0.72706,-1.67821 0,-1.24573 0.11844,-1.48808 0.72706,-1.48808 0.63887,0 0.72699,-0.24234 0.72699,-1.99931 v -1.99933 h 2.18108 2.18103 v 1.99933 c 0,1.97912 0.0138,1.99931 1.0906,1.99931 1.05021,0 1.09047,0.0605 1.09047,1.6358 0,1.57903 -0.0384,1.63581 -1.102,1.63581 h -1.10215 l 0.10301,4.27127 0.103,4.27128 0.99966,0.115 c 0.8951,0.10301 0.99966,0.25956 0.99966,1.49735 0,1.31497 -0.0659,1.39333 -1.3632,1.60767 -1.63164,0.26972 -1.78305,0.26238 -3.18023,-0.15421 z m 44.96331,-0.0404 c -2.53169,-0.56609 -2.97504,-1.65546 -2.97669,-7.31474 0,-6.79751 0.59846,-7.63279 5.51883,-7.6767 3.75942,-0.0336 4.79122,0.66884 4.94977,3.3694 l 0.10994,1.87164 h -1.81122 c -1.5745,0 -1.82647,-0.10212 -1.92745,-0.78077 -0.16474,-1.10782 -1.17139,-1.66951 -1.90327,-1.06208 -0.45682,0.37912 -0.57567,1.24781 -0.57567,4.20569 0,2.95786 0.11953,3.82655 0.57567,4.20567 0.8275,0.68671 1.76052,-0.0123 1.90107,-1.42511 0.11266,-1.13347 0.13327,-1.14477 2.14027,-1.14477 h 2.02624 l -0.24443,2.09021 c -0.28412,2.43099 -0.955,3.27315 -2.9815,3.74324 -1.71162,0.39704 -2.73847,0.37957 -4.80139,-0.0817 z m -397.02557,-7.38756 v -7.45201 h 1.99932 c 1.82862,0 2.00001,0.0698 2.00739,0.8179 l 0.008,0.81789 0.67101,-0.87278 c 0.53065,-0.69021 1.02936,-0.88031 2.38392,-0.90878 2.24428,-0.0471 2.74509,0.62211 2.74509,3.66861 v 2.29335 h -1.81755 -1.81758 v -1.27229 c 0,-1.11478 -0.11251,-1.27229 -0.90877,-1.27229 h -0.90879 v 5.81619 5.81621 h -2.18107 -2.18108 v -7.452 z m 126.13883,0 v -7.45201 h 2.18107 c 1.99704,0 2.18109,0.0667 2.18109,0.79039 v 0.79038 l 0.81789,-0.7486 c 0.44985,-0.41174 1.18854,-0.86104 1.64152,-0.99846 1.08424,-0.32891 3.26775,0.41124 3.72309,1.26203 0.20044,0.37453 0.36072,3.59209 0.36072,7.24114 v 6.56713 h -1.99933 -1.99931 l -0.005,-5.36181 c -0.004,-2.949 -0.14425,-5.58061 -0.31375,-5.84801 -0.16951,-0.2674 -0.69862,-0.43099 -1.17586,-0.36351 l -0.86777,0.1227 -0.10014,5.72532 -0.10015,5.72532 h -2.17184 -2.17184 z m 116.54326,6.45233 c -0.20291,-1.0041 -2.03683,-13.34923 -2.03683,-13.71106 0,-0.10631 0.95134,-0.19328 2.11407,-0.19328 h 2.11409 l 0.4661,4.85692 c 0.72422,7.54699 0.90884,8.00299 1.41856,3.50387 0.23781,-2.09929 0.53702,-4.83927 0.66493,-6.08884 l 0.23255,-2.27195 h 2.15817 2.15817 l -0.21079,0.99964 c -0.18598,0.88163 -2.02804,13.37673 -2.02804,13.75636 0,0.0814 -1.54101,0.14801 -3.42448,0.14801 h -3.42449 z m 24.86313,-9.5422 v -10.54186 h 1.99928 1.99932 v 10.54186 10.54187 h -1.99932 -1.99928 z m 34.17013,3.08987 v -7.45201 h 2.18109 c 1.99702,0 2.18107,0.0667 2.18107,0.79039 0,0.78803 0.004,0.78776 0.93807,-0.0908 1.27571,-1.19848 3.72459,-1.22693 4.96914,-0.0577 0.86313,0.81086 0.88639,0.81275 1.51014,0.12352 0.34835,-0.385 1.04681,-0.80373 1.55204,-0.93054 1.19775,-0.30061 3.2979,0.40436 3.75633,1.26092 0.20045,0.37452 0.36073,3.59209 0.36073,7.24114 v 6.56713 h -1.99933 -1.99932 l -0.006,-5.36182 c -0.004,-2.94899 -0.14425,-5.5806 -0.31375,-5.848 -0.16951,-0.2674 -0.69863,-0.43099 -1.17586,-0.36351 l -0.86777,0.12269 -0.10014,5.72533 -0.10015,5.72532 h -2.17184 -2.17185 v -5.84035 -5.84034 l -0.99965,0.11499 -0.99966,0.11499 -0.10015,5.72533 -0.10015,5.72533 h -2.17185 -2.17184 z m 34.17017,0 v -7.45201 h 1.99933 c 1.81043,0 1.99932,0.0747 1.99932,0.79039 0,0.78803 0.004,0.78776 0.93823,-0.0908 1.28046,-1.20274 3.96068,-1.19558 4.93947,0.0138 0.59111,0.72994 0.66552,1.56947 0.66552,7.50657 v 6.68471 h -1.99009 -1.99008 l -0.10015,-5.72531 -0.10015,-5.72533 -0.86766,-0.12269 c -0.47721,-0.0675 -1.00634,0.0962 -1.17586,0.36352 -0.1695,0.2674 -0.31069,2.89901 -0.31374,5.848 l -0.005,5.36181 h -1.99933 -1.9993 z m 37.80523,0 v -7.45201 h 1.99932 1.99944 v 7.45201 7.452 h -1.99944 -1.99932 z m 6.90676,0 v -7.45201 h 2.18109 c 1.93885,0 2.18107,0.0808 2.18107,0.72703 0,0.71402 0.0138,0.71468 0.6901,0.037 1.56805,-1.56812 4.4259,-1.20177 5.38284,0.69001 0.31681,0.62664 0.46135,2.8556 0.46492,7.17937 v 6.2706 h -2.17173 -2.17187 l -0.10026,-5.72532 -0.10026,-5.72532 -0.99964,-0.11501 -0.99966,-0.11499 v 5.84035 5.84034 h -2.18107 -2.18109 z m -298.4437,-0.18179 v -1.81756 h 3.63514 3.63512 v 1.81756 1.81756 h -3.63512 -3.63514 z m 114.50648,0 v -1.81756 h 3.81684 3.81692 v 1.81756 1.81756 h -3.81692 -3.81684 z M 921.4651,250.54432 v -1.63581 h 1.99932 1.99944 v 1.63581 1.6358 h -1.99944 -1.99932 z"
           id="path1030-1"
           inkscape:connector-curvature="0"
           sodipodi:nodetypes="ccssccsscssccccccccccsccccssccsccssccccccccccsccccscccsccssccccsssssccsssccccccsccccsccccccccccccccsscccccscccccccccccccccscccccccccccccsscsccccccccscssccscccccccssssscccccsssccccsccccccccscsccccsccccccccccsccccccccccccccccscsccscccccscccsccccccscscccccsccsscccssscccssssccccscccccccsscccccssccccccccccccccsccscccsscsccccscscsccccsccccccscsccccccccccccccscccccscccsccccccscscscccsccsscccssscccssssccccsccccccccsccsccscccccccsccccscccsscccccccccssccccsccccccccccccccsccccccccsscccccccccccccsscccccsccccccccccccccccccccccssccscccccccccccccccccccccccssccccccccccccccccccccccccccccccccccccccccccc" />
        <path
           style="fill:#afbd21;fill-opacity:1;stroke:#483737;stroke-width:0.36351246;stroke-opacity:1"
           d="m 500.11097,280.69739 c -1.78662,-0.64262 -2.67624,-1.46548 -3.225,-2.98302 l -0.44123,-1.22019 h -116.1616 -116.1616 l -16.33053,-16.33356 c -7.23666,-7.23799 -16.32146,-16.39385 -16.32146,-16.39385 0.29267,-0.50447 0.69627,-0.89151 1.34574,-1.15759 0,0 9.64637,9.5815 16.47163,16.54819 l 15.56767,15.88276 h 115.79508 115.79507 l 0.45981,-1.27154 c 0.92161,-2.54866 4.19958,-4.00826 6.67706,-2.9731 l 1.29211,0.53988 19.03246,-22.04858 c 10.46786,-12.12671 19.40565,-22.42917 19.8617,-22.89435 1.76994,-1.80519 8.44087,-9.53259 8.45061,-9.78892 0.006,-0.14888 0.70089,-1.02925 1.54494,-1.95641 5.67739,-6.23634 14.2455,-16.49849 14.18541,-16.99007 -0.0397,-0.3247 -0.17129,-1.32647 -0.29248,-2.22615 -0.73855,-5.48396 6.59742,-8.06447 9.67131,-3.40202 1.06667,1.61791 0.93911,4.50413 -0.26215,5.93177 -1.79016,2.12745 -4.01748,2.71129 -6.4562,1.69233 l -1.20523,-0.50357 -3.7814,4.40076 c -2.07976,2.42041 -5.19706,5.95955 -6.92734,7.8647 -1.73026,1.90516 -3.69322,4.14783 -4.36215,4.9837 -1.45715,1.82083 -3.22666,3.87933 -28.55984,33.22411 l -19.70983,22.83103 0.53234,1.02057 c 2.09436,4.0154 -2.17669,8.77267 -6.4849,7.22312 z M 32.549103,257.4437 c -2.749969,-1.19782 -3.953054,-4.21142 -2.75896,-6.9109 1.933162,-4.3702 7.863529,-4.333 9.735459,0.061 l 0.503284,1.18143 h 90.115864 90.11587 l 14.94139,-15.17666 14.94142,-15.17664 -11.6825,-0.0961 -11.68248,-0.0961 -10.09366,9.81994 -10.09366,9.81993 h -48.74744 -48.74743 l -0.50072,1.19839 c -1.18447,2.83483 -4.19019,4.06337 -6.9522,2.8416 -2.004123,-0.88652 -3.095474,-2.54052 -3.097334,-4.6942 -0.0055,-5.72187 7.173234,-7.48745 9.858894,-2.42492 l 0.86211,1.62506 38.35119,-0.008 c 36.39843,-0.008 38.3112,-0.0402 37.5657,-0.63615 -0.76406,-0.61091 -7.88971,-5.97427 -14.45831,-10.88255 l -3.24791,-2.42691 -48.18911,-0.15119 -48.189119,-0.15118 -0.734204,1.58446 c -1.81347,3.91374 -7.488069,4.09483 -9.449635,0.30157 -0.768297,-1.48572 -0.677813,-3.93892 0.198301,-5.37592 0.946029,-1.55167 3.548926,-2.76204 5.186931,-2.41196 1.906375,0.40746 3.087627,1.30162 3.96768,3.00339 l 0.830927,1.60674 48.725669,-0.16558 48.72567,-0.16558 4.71066,3.74613 c 2.59086,2.0604 7.14212,5.63315 10.11388,7.93949 l 5.4032,4.19331 h 8.44187 8.44187 l 9.91248,-10.18341 9.91247,-10.18343 83.00837,0.0959 c 82.84841,0.0957 83.00805,0.0945 82.83408,-0.63107 -1.25556,-5.23696 -14.33448,-60.68473 -14.33448,-60.77067 0,-0.0647 4.37722,-0.11774 9.72717,-0.11774 h 9.72715 l 5.22538,26.26377 c 2.87394,14.44508 5.52179,26.95966 5.88407,27.81019 0.76767,1.80212 1.69383,2.27047 4.48982,2.27047 2.12484,0 3.4691,-0.7671 4.35615,-2.48581 0.27463,-0.53215 4.91975,-12.58179 10.32248,-26.77694 5.4027,-14.19516 9.93673,-26.09739 10.07561,-26.4494 0.23637,-0.59916 1.24181,-0.63398 15.74645,-0.54528 l 15.49401,0.0948 10.20445,26.83814 c 6.11023,16.07018 10.5697,27.2918 11.11482,27.96884 0.82241,1.02145 1.14529,1.14566 3.34145,1.2855 2.81682,0.17935 3.96242,-0.3503 4.80064,-2.21955 0.28697,-0.63999 2.82555,-12.77785 5.64129,-26.973 2.81573,-14.19516 5.20277,-26.09565 5.30455,-26.44553 0.1702,-0.58514 0.95543,-0.63615 9.79361,-0.63615 6.77282,0 9.60858,0.11857 9.60858,0.40174 0,1.2529 -15.39991,65.31788 -15.96695,66.42391 -0.94416,1.84157 -3.13493,3.94829 -5.29853,5.09514 l -1.81755,0.96346 c -6.92399,0.8354 -13.47194,0.83179 -20.72022,0 l -2.45037,-1.16075 c -2.94343,-1.39432 -5.64553,-3.97877 -6.77317,-6.47827 -0.44971,-0.99678 -4.94166,-12.28147 -9.98214,-25.0771 l -9.16454,-23.2648 -3.12854,-0.10443 -3.12856,-0.10444 -0.98771,2.46721 c -0.54323,1.35697 -4.75427,12.03669 -9.35786,23.73271 -4.6036,11.69601 -8.6845,21.88627 -9.0687,22.64502 -1.58266,3.12564 -5.02061,5.89095 -8.63942,6.94916 -2.75549,0.80574 -19.00563,0.83882 -21.68166,0.0441 -3.44434,-1.02288 -6.45921,-4.14502 -7.38307,-7.64582 l -0.38372,-1.45406 -69.38855,0.0891 -69.38856,0.0891 -16.13822,15.9806 -16.13824,15.9806 -90.41885,0.0156 -90.418854,0.0156 -0.503284,1.18142 c -1.227627,2.88163 -4.278661,4.20803 -6.976499,3.03293 z M 623.09313,194.15073 v -36.54082 l 47.71102,0.0986 47.71102,0.0986 2.54458,0.85846 c 6.18334,2.08602 9.53155,5.58795 10.90261,11.40312 0.72266,3.06521 0.73134,13.71367 0.0138,17.09926 -1.01929,4.81014 -3.80053,8.58533 -7.82876,10.62659 -3.25645,1.65017 -6.91266,2.37485 -13.20719,2.61772 l -5.75732,0.22213 15.0252,15.02849 15.02525,15.02848 H 723.05509 710.87687 L 696.5807,215.96911 682.28454,201.24685 h -20.87152 -20.87146 v 14.72226 14.72225 h -8.7243 -8.7243 v -36.54082 z m 92.69568,-13.62705 c 0,-3.95065 -0.35572,-5.16365 -1.69297,-5.77295 -0.63034,-0.28719 -11.36562,-0.4036 -37.21998,-0.4036 h -36.33412 v 12.00946 l 36.7463,-0.0977 36.74632,-0.0977 c 2.49751,-1.44222 1.75257,-4.06359 1.75445,-5.63754 z m 24.71887,13.63488 v -36.533 h 8.72429 8.7243 v 13.44996 13.44996 h 16.81066 16.81064 l 13.45857,-13.45497 13.45855,-13.45496 12.1544,0.0959 12.15441,0.0959 -17.77177,16.53983 c -9.77444,9.09689 -17.94606,16.65874 -18.15915,16.80408 -0.22931,0.15645 7.62187,8.27747 19.241,19.90232 l 19.62844,19.63803 -12.17642,-0.0195 -12.17641,-0.0195 -14.35874,-14.85096 -14.35873,-14.85097 -17.26685,0.0573 -17.26685,0.0573 -0.095,14.81313 -0.095,14.81313 h -8.72022 -8.72023 z m 112.68885,28.18203 v -8.3706 h 41.20444 c 29.14646,0 41.54165,-0.11761 42.35688,-0.40175 2.68639,-0.25829 2.17858,-8.38107 1.5859,-9.59484 -1.10024,-1.49756 0.10059,-1.44448 -37.31008,-1.64877 -39.27672,-0.21448 -37.04079,-0.0819 -42.24757,-2.505 -3.0448,-1.41698 -5.13428,-3.15491 -6.54027,-6.00895 -1.64544,-3.31148 -1.52769,-8.33922 -1.57863,-12.32032 -0.13217,-10.33584 0.47765,-11.77983 2.17184,-15.14641 1.11868,-2.22293 3.85872,-4.9939 6.03112,-6.09913 0.77814,-0.39588 2.55986,-1.10629 3.95937,-1.57865 l 2.54458,-0.85886 44.25766,-0.0992 44.25765,-0.0994 v 8.36919 8.36919 h -41.4585 c -44.10755,0 -42.739,-0.39175 -43.74113,1.6521 0.0228,3.20948 -0.32431,8.1314 1.52847,9.43503 l 35.3832,0.19994 c 32.03832,0.18105 35.60481,0.25956 37.72685,0.83041 3.82358,1.02856 6.73825,2.66836 8.9074,5.0113 3.51509,3.79672 4.41798,7.95347 4.09642,18.85896 -0.14216,4.82118 -0.37285,7.29097 -0.81492,8.72429 -1.69276,5.48869 -5.69504,9.02166 -12.23372,10.7992 -2.10271,0.57161 -6.04281,0.63464 -46.19291,0.73888 l -43.89413,0.11389 z"
           id="path1030"
           inkscape:connector-curvature="0"
           sodipodi:nodetypes="cccccscccccccccsccccccccccccccccccccccccccccccsccccccccccccsccccccscccccscsscccscccccscccscsscccccccccccsccccccccccccccccccccccccccccccccccccccccscccccccccccccccccsccccccccccccccccsccscccccccccccsccssssccccc" />
        <path
           style="fill:#afbd21;fill-opacity:1;stroke:#5d6c63;stroke-width:0.77625656;stroke-miterlimit:4;stroke-dasharray:none;stroke-opacity:1;paint-order:fill markers stroke"
           d="m 565.62377,236.5341 c -0.0868,-0.24992 -0.45529,-1.66269 -0.81873,-3.1395 l -0.66072,-2.68508 -3.25939,-1.13592 c -1.79267,-0.62476 -4.36318,-1.74418 -5.71225,-2.48763 l -2.45287,-1.35171 -2.7342,1.65995 -2.73419,1.65997 -1.1744,-1.03725 c -0.64589,-0.57048 -2.70431,-2.62192 -4.57418,-4.55875 l -3.39983,-3.52152 1.69991,-2.79996 1.69988,-2.79996 -1.00468,-1.84586 c -0.55255,-1.01522 -1.60876,-3.56274 -2.34716,-5.66117 l -1.34253,-3.81531 -3.0414,-0.75338 -3.0414,-0.75339 v -6.50486 -6.50487 l 2.98412,-0.74619 c 1.64122,-0.41041 3.12383,-0.90978 3.29472,-1.10971 0.17082,-0.19995 0.60355,-1.345 0.96161,-2.5446 0.3581,-1.19958 1.35587,-3.54813 2.21741,-5.21897 l 1.56639,-3.0379 -1.60435,-2.64258 c -0.8824,-1.45342 -1.60435,-2.7879 -1.60435,-2.96551 0,-0.17761 2.00383,-2.31989 4.453,-4.76063 l 4.45306,-4.4377 2.83365,1.67304 2.83366,1.67304 3.52782,-1.65247 c 1.94028,-0.90886 4.46353,-1.92174 5.60714,-2.25084 2.28289,-0.6569 2.20026,-0.52525 3.23715,-5.15873 l 0.43363,-1.93756 h 6.44468 6.44471 l 0.80036,3.23895 0.8003,3.23892 2.96637,0.93021 c 1.63151,0.5116 4.2099,1.56891 5.72986,2.34958 l 2.7635,1.4194 2.60741,-1.58988 c 1.43406,-0.87445 2.72836,-1.5899 2.87635,-1.5899 0.14799,0 2.2633,2.00387 4.70065,4.45303 l 4.43166,4.45303 -1.61985,2.64454 c -0.89092,1.4545 -1.61987,2.76849 -1.61987,2.91999 0,0.1515 0.59953,1.40463 1.33237,2.78473 0.73284,1.38008 1.78234,3.90832 2.33226,5.6183 l 0.9998,3.10903 3.02958,0.75014 3.02959,0.75013 0.0992,6.41723 0.0992,6.41724 -1.55325,0.40133 c -5.09946,1.31761 -4.72821,1.0923 -5.39342,3.27289 -0.91995,3.01552 -2.09912,5.80482 -3.24055,7.66558 l -1.02703,1.67421 1.65676,2.81132 1.65673,2.81133 -4.54016,4.54019 -4.5402,4.54018 -2.74306,-1.66533 -2.74303,-1.66536 -2.86084,1.42955 c -2.33113,1.16486 -5.34607,2.29244 -8.35342,3.12412 -0.22192,0.0614 -0.59866,0.90251 -0.83724,1.86922 -0.23857,0.9667 -0.595,2.37108 -0.79199,3.12082 l -0.3582,1.36317 h -6.35884 c -4.76049,0 -6.39858,-0.11417 -6.51688,-0.45438 z m 14.53959,-11.73791 c 9.04431,-2.47539 16.86863,-9.38369 20.47849,-18.08102 6.09777,-14.69139 -0.55248,-31.88256 -15.0258,-38.84233 -9.82795,-4.72594 -21.88032,-3.78321 -30.53505,2.38845 -4.30518,3.07 -8.53429,8.17123 -10.54662,12.72143 -2.59501,5.86774 -3.26045,13.69156 -1.6716,19.65381 3.0532,11.45765 12.17431,20.1545 23.66883,22.56791 3.04301,0.63891 10.63666,0.41148 13.63175,-0.40825 z m -11.01704,-4.19212 c -6.52545,-0.84719 -12.6026,-4.10046 -16.44675,-8.80444 -2.08784,-2.55477 -4.76141,-7.81669 -5.48685,-10.79889 -0.69538,-2.85829 -0.58749,-9.45362 0.2022,-12.35944 3.937,-14.48735 19.20238,-22.54204 33.4153,-17.63142 7.14693,2.46926 13.08254,8.45845 15.62995,15.77106 1.42214,4.08229 1.7481,9.77646 0.80282,14.0252 -2.34447,10.538 -11.37157,18.56754 -22.27931,19.81733 -1.74966,0.20047 -3.26288,0.34509 -3.36285,0.32137 -0.10004,-0.0237 -1.21349,-0.17706 -2.47451,-0.34077 z m 4.22072,-4.1982 c 0.10168,-1.04438 0.23904,-1.15231 1.72642,-1.35618 0.88882,-0.12187 2.00418,-0.31894 2.47869,-0.43801 0.7116,-0.1786 0.90485,-0.0483 1.10365,0.74362 0.18325,0.73039 0.43359,0.93276 1.04601,0.84568 0.67668,-0.0962 0.79096,-0.3174 0.71673,-1.38678 -0.0838,-1.20744 0.0204,-1.33074 2.04418,-2.41892 l 2.13251,-1.14664 0.77162,0.77159 c 0.72391,0.72388 0.80952,0.73366 1.38484,0.15828 0.57487,-0.57484 0.57498,-0.65568 0,-1.28936 -0.8508,-0.94015 -0.79147,-1.11933 1.02318,-3.09091 1.57431,-1.71043 1.62395,-1.73337 2.50409,-1.15668 0.85364,0.5593 0.91954,0.54817 1.33359,-0.22549 0.36449,-0.68114 0.33068,-0.89055 -0.20732,-1.28393 -0.35351,-0.25854 -0.78602,-0.5178 -0.96102,-0.57613 -0.17499,-0.0584 0.004,-0.92303 0.39435,-1.92155 0.39186,-0.99852 0.80005,-2.10577 0.90699,-2.46055 0.14882,-0.49346 0.41921,-0.58871 1.15031,-0.4052 0.63561,0.15953 1.06261,0.0712 1.27474,-0.2637 0.56811,-0.89712 0.35219,-1.34974 -0.76052,-1.59413 -1.08206,-0.23768 -1.09054,-0.25877 -1.09054,-2.72635 0,-2.48026 0.004,-2.48747 1.1162,-2.73198 0.78759,-0.17296 1.05509,-0.40428 0.90883,-0.78563 -0.11404,-0.29728 -0.20743,-0.71113 -0.20743,-0.91971 0,-0.22853 -0.43887,-0.29146 -1.10439,-0.15834 -0.85465,0.17093 -1.14706,0.0785 -1.29305,-0.40896 -0.10367,-0.3464 -0.50928,-1.44679 -0.90114,-2.44531 -0.3919,-0.99851 -0.56934,-1.8632 -0.39435,-1.92154 0.175,-0.0584 0.60751,-0.3176 0.96102,-0.57612 0.538,-0.3934 0.57181,-0.60283 0.20732,-1.28393 -0.4164,-0.77805 -0.47584,-0.78751 -1.34962,-0.21499 -0.8986,0.58875 -0.93658,0.57284 -2.24593,-0.94007 -1.93471,-2.23552 -2.03028,-2.47276 -1.31438,-3.26378 0.51321,-0.56713 0.54428,-0.79503 0.16995,-1.24615 -0.62724,-0.75574 -1.19727,-0.6923 -1.75141,0.19496 l -0.46649,0.74705 -1.24173,-0.76743 c -0.68297,-0.42209 -1.73203,-1.012 -2.33116,-1.31092 -0.97659,-0.48717 -1.05202,-0.64206 -0.72798,-1.49438 0.26737,-0.70312 0.23945,-1.02835 -0.10686,-1.24813 -0.80034,-0.50778 -1.24466,-0.34326 -1.68538,0.62399 -0.32747,0.71873 -0.5981,0.87733 -1.18123,0.69225 -0.41602,-0.13203 -1.51888,-0.34831 -2.45078,-0.4806 -1.50617,-0.21382 -1.70709,-0.35124 -1.80934,-1.23754 -0.0887,-0.78236 -0.30404,-0.997 -0.9982,-0.997 -0.73115,0 -0.88466,0.18055 -0.88466,1.04049 0,0.98839 -0.0985,1.05207 -1.96838,1.27184 -1.08261,0.12722 -2.22084,0.3282 -2.52936,0.44661 -0.39029,0.14977 -0.63291,-0.0713 -0.79736,-0.72658 -0.24533,-0.97744 -0.70794,-1.15769 -1.56994,-0.61176 -0.32305,0.20458 -0.4229,0.64045 -0.27856,1.21565 0.19917,0.79346 -0.0219,1.04331 -1.91967,2.16973 l -2.1448,1.273 -0.75599,-0.756 c -0.69794,-0.69795 -0.80137,-0.71062 -1.34689,-0.16508 -0.5404,0.5404 -0.54167,0.66125 -0.015,1.41334 0.5472,0.7812 0.51528,0.88966 -0.63687,2.16497 -0.66712,0.73841 -1.36822,1.62004 -1.55801,1.95917 -0.29725,0.53114 -0.48351,0.5535 -1.34422,0.16132 -0.83009,-0.37821 -1.0554,-0.36647 -1.33111,0.0693 -0.40402,0.63857 -0.4428,1.43135 -0.0703,1.43897 0.14994,0.002 0.48902,0.14275 0.75348,0.31043 0.38798,0.24599 0.31775,0.77637 -0.36352,2.74562 -0.79961,2.3114 -0.89626,2.4305 -1.82369,2.2473 -0.75317,-0.14876 -1.03143,-0.0294 -1.20486,0.51716 -0.30031,0.94609 0.0536,1.44417 1.02594,1.44417 0.75042,0 0.79688,0.15759 0.77692,2.63546 -0.0208,2.58543 -0.0398,2.63765 -1.00135,2.75048 -0.53907,0.0632 -0.98014,0.25437 -0.98014,0.42467 0,0.90593 0.53984,1.45963 1.42314,1.45963 0.87084,0 1.0868,0.26711 1.91029,2.36284 0.51067,1.29954 0.82834,2.36803 0.70595,2.37437 -0.12241,0.007 -0.52171,0.23834 -0.88738,0.5155 -0.54085,0.4099 -0.58913,0.64547 -0.2587,1.26287 0.38255,0.71485 0.46871,0.7266 1.48276,0.2022 0.59213,-0.30621 1.07662,-0.40396 1.07662,-0.21725 0,0.18671 0.74759,1.10873 1.66136,2.0489 l 1.66136,1.70942 -0.75821,0.80708 c -0.74917,0.79743 -0.74979,0.81473 -0.054,1.44442 0.67588,0.61166 0.72801,0.60098 1.29547,-0.265 l 0.5912,-0.90232 2.05131,1.23522 c 1.1282,0.67938 2.17954,1.23522 2.3363,1.23522 0.15677,0 0.12434,0.42268 -0.0722,0.9393 -0.42526,1.11849 -0.19688,1.6053 0.75316,1.6053 0.44803,0 0.78316,-0.3368 0.93427,-0.93891 0.18731,-0.74623 0.39386,-0.8935 1.00661,-0.7177 0.424,0.12158 1.54794,0.32155 2.49762,0.44426 1.57742,0.20379 1.72668,0.30774 1.72668,1.20239 0,1.20146 0.29418,1.52633 1.25732,1.38847 0.53592,-0.0767 0.77268,-0.42135 0.85242,-1.2409 z"
           id="path1028-9"
           inkscape:connector-curvature="0"
           sodipodi:nodetypes="cccsccccccccccccccccccccccsccccccccccccccccscccscccccccsccccccccccccccsccscsccccscccccccccccccccccccccccccccccccsccsccccccccccccccccccccsscccccccccccccccccccsccsscccccscccccccscscccsccc" />
      </g>
    </g>
  </g>
</svg>
